<svg width="20" height="20" viewBox="0 0 20 20" version="1.1" xmlns="http://www.w3.org/2000/svg" xmlns:xlink="http://www.w3.org/1999/xlink">
<title>help</title>
<g id="Canvas" transform="translate(-3507 209)">
<use xlink:href="#path0_fill" transform="translate(3507 -209)" fill="#333333"/>
</g>
</g>
<defs>
<path id="path0_fill" d="M 9 16L 11 16L 11 14L 9 14L 9 16ZM 10 0C 4.48 0 0 4.48 0 10C 0 15.52 4.48 20 10 20C 15.52 20 20 15.52 20 10C 20 4.48 15.52 0 10 0ZM 10 18C 5.59 18 2 14.41 2 10C 2 5.59 5.59 2 10 2C 14.41 2 18 5.59 18 10C 18 14.41 14.41 18 10 18ZM 10 4C 7.79 4 6 5.79 6 8L 8 8C 8 6.9 8.9 6 10 6C 11.1 6 12 6.9 12 8C 12 10 9 9.75 9 13L 11 13C 11 10.75 14 10.5 14 8C 14 5.79 12.21 4 10 4Z"/>
</defs>
</svg>
