<svg width="22" height="23" xmlns="http://www.w3.org/2000/svg" xmlns:xlink="http://www.w3.org/1999/xlink"><use xlink:href="#path0_fill" transform="translate(0 1.005)" fill="#F2994A"/><use xlink:href="#path1_fill" transform="translate(3 8)" fill="#FFF"/><use xlink:href="#path1_fill" transform="translate(6 15)" fill="#FFF"/><use xlink:href="#path1_fill" transform="translate(11 11)" fill="#FFF"/><use xlink:href="#path1_fill" transform="translate(15 16)" fill="#FFF"/><g transform="translate(-2887 46)"><use xlink:href="#path2_fill" transform="translate(2901 -45)" fill="#F2994A"/><mask id="a"><path fill="#fff" transform="translate(2901 -45)" d="M-1-1h8v8h-8z"/><use xlink:href="#path2_fill" transform="translate(2901 -45)"/></mask><g mask="url(#a)"><use xlink:href="#path3_stroke_2x" transform="translate(2901 -45)" fill="#F2994A"/></g></g><defs><path id="path0_fill" fill-rule="evenodd" d="M21.65 8.228A7 7 0 0 1 10.671 0C4.747.174 0 5.03 0 10.995c0 6.075 4.925 11 11 11s11-4.925 11-11c0-.955-.122-1.883-.35-2.767z"/><path id="path1_fill" d="M4 2a2 2 0 1 1-4 0 2 2 0 0 1 4 0z"/><path id="path2_fill" d="M6 .604L5.396 0 3 2.396.604 0 0 .604 2.396 3 0 5.396.604 6 3 3.604 5.396 6 6 5.396 3.604 3 6 .604z"/><path id="path3_stroke_2x" d="M6 .604l.354.354.353-.354-.353-.353L6 .604zM5.396 0l.353-.354-.353-.353-.354.353.354.354zM3 2.396l-.354.353.354.354.354-.354L3 2.396zM.604 0l.354-.354-.354-.353-.353.353L.604 0zM0 .604L-.354.251l-.353.353.353.354L0 .604zM2.396 3l.353.354L3.103 3l-.354-.354L2.396 3zM0 5.396l-.354-.354-.353.354.353.353L0 5.396zM.604 6l-.353.354.353.353.354-.353L.604 6zM3 3.604l.354-.353L3 2.897l-.354.354.354.353zM5.396 6l-.354.354.354.353.353-.353L5.396 6zM6 5.396l.354.353.353-.353-.353-.354L6 5.396zM3.604 3l-.353-.354L2.897 3l.354.354L3.604 3zM6.354.25l-.605-.604-.707.708.604.604.708-.707zM5.042-.353L2.646 2.042l.708.707L5.749.354l-.707-.708zM3.354 2.042L.958-.354.25.354l2.395 2.395.708-.707zM.25-.354l-.605.605.708.707.604-.604L.25-.354zM-.354.958l2.396 2.396.707-.708L.354.251l-.708.707zm2.396 1.688L-.354 5.042l.708.707 2.395-2.395-.707-.708zM-.354 5.75l.605.605.707-.708-.604-.604-.708.707zm1.312.605l2.396-2.396-.708-.707L.251 5.646l.707.708zm1.688-2.396l2.396 2.396.707-.708-2.395-2.395-.708.707zM5.75 6.354l.605-.605-.708-.707-.604.604.707.708zm.605-1.312L3.958 2.646l-.707.708 2.395 2.395.708-.707zM3.958 3.354L6.354.958 5.646.25 3.251 2.646l.707.708z"/></defs></svg>