<svg width="14" height="15" viewBox="0 0 14 15" version="1.1" xmlns="http://www.w3.org/2000/svg" xmlns:xlink="http://www.w3.org/1999/xlink">
<title>reset</title>
<desc>Created using Figma</desc>
<g id="Canvas" transform="translate(-3551 -2)">
<g id="reset">
<use xlink:href="#path0_stroke" transform="translate(3552 3)" fill="#828282"/>
</g>
</g>
<defs>
<path id="path0_stroke" d="M 0.595437 7.09091C 0.595437 6.76206 0.328851 6.49547 0 6.49547C -0.328851 6.49547 -0.595437 6.76206 -0.595437 7.09091L 0.595437 7.09091ZM 1.8 2.87097L 1.20456 2.87097L 1.20456 3.28976L 1.59869 3.43135L 1.8 2.87097ZM 2.39544 0C 2.39544 -0.328851 2.12885 -0.595437 1.8 -0.595437C 1.47115 -0.595437 1.20456 -0.328851 1.20456 0L 2.39544 0ZM 4.29869 4.40128C 4.60818 4.51246 4.9492 4.3517 5.06038 4.04222C 5.17155 3.73273 5.01079 3.39171 4.70131 3.28053L 4.29869 4.40128ZM 11.4046 7.09091C 11.4046 10.017 8.99346 12.4046 6 12.4046L 6 13.5954C 9.63396 13.5954 12.5954 10.6918 12.5954 7.09091L 11.4046 7.09091ZM 6 12.4046C 3.00654 12.4046 0.595437 10.017 0.595437 7.09091L -0.595437 7.09091C -0.595437 10.6918 2.36604 13.5954 6 13.5954L 6 12.4046ZM 6 1.77726C 8.99346 1.77726 11.4046 4.1648 11.4046 7.09091L 12.5954 7.09091C 12.5954 3.49002 9.63396 0.586381 6 0.586381L 6 1.77726ZM 2.21358 3.29934C 3.18837 2.35821 4.5239 1.77726 6 1.77726L 6 0.586381C 4.20556 0.586381 2.57613 1.29399 1.38642 2.4426L 2.21358 3.29934ZM 2.39544 2.87097L 2.39544 0L 1.20456 0L 1.20456 2.87097L 2.39544 2.87097ZM 1.59869 3.43135L 4.29869 4.40128L 4.70131 3.28053L 2.00131 2.3106L 1.59869 3.43135Z"/>
</defs>
</svg>
