<svg width="20" height="20" viewBox="0 0 20 20" version="1.1" xmlns="http://www.w3.org/2000/svg" xmlns:xlink="http://www.w3.org/1999/xlink" xmlns:figma="http://www.figma.com/figma/ns">
<title>block</title>
<desc>Created using Figma</desc>
<g id="Canvas" transform="translate(-2269 -4)" figma:type="canvas">
<g id="block" style="mix-blend-mode:normal;" figma:type="frame">
<g id="Vector" style="mix-blend-mode:normal;" figma:type="vector">
<use xlink:href="#path0_fill" transform="translate(2269 4)" style="mix-blend-mode:normal;"/>
</g>
</g>
</g>
<defs>
<path id="path0_fill" d="M 10 0C 4.48 0 0 4.48 0 10C 0 15.52 4.48 20 10 20C 15.52 20 20 15.52 20 10C 20 4.48 15.52 0 10 0ZM 2 10C 2 5.58 5.58 2 10 2C 11.85 2 13.55 2.63 14.9 3.69L 3.69 14.9C 2.63 13.55 2 11.85 2 10ZM 10 18C 8.15 18 6.45 17.37 5.1 16.31L 16.31 5.1C 17.37 6.45 18 8.15 18 10C 18 14.42 14.42 18 10 18Z"/>
</defs>
</svg>
